# xmcd
#
# Track frame offsets: 
#        150
#        24671
#        40369
#        53120
#        67731
#        82844
#        97319
#        114841
#        128981
#        143947
#
# Disc length: 2306 seconds
#
# Revision: 0
# Processed by: cddbd v1.5.2PL0 Copyright (c) Steve Scherf et al.
# Submitted via: ExactAudioCopy v0.99pb5
#
DISCID=8309000a
DTITLE=Bill Withers  - +'Justments - 2010  
DYEAR=1900
DGENRE=
TTITLE0=You
TTITLE1=The Same Love That Made Me Laugh
TTITLE2=Stories
TTITLE3=Green Grass
TTITLE4=Ruby Lee
TTITLE5=Heartbreak Road
TTITLE6=Can We Pretend
TTITLE7=Liza
TTITLE8=Make A Smile For Me
TTITLE9=Railroad Man
EXTD=
EXTT0=
EXTT1=
EXTT2=
EXTT3=
EXTT4=
EXTT5=
EXTT6=
EXTT7=
EXTT8=
EXTT9=
PLAYORDER=
